HIERARCHY
ROOT Elbow
{
	OFFSET	0.00	0.00	0.00
	CHANNELS 6 Xposition Yposition Zposition Zrotation Xrotation Yrotation
	JOINT L_Wrist
	{
		OFFSET	 0.208349	 0.000000	 0.000000
		CHANNELS 3 Zrotation Xrotation Yrotation
		JOINT L_index_Proximal
		{
			OFFSET	 0.093499	 0.010637	-0.002084
			CHANNELS 3 Zrotation Xrotation Yrotation
			JOINT L_index_b
			{
				OFFSET	 0.033152	 0.000000	 0.000000
				CHANNELS 3 Zrotation Xrotation Yrotation
				JOINT L_index_c
				{
					OFFSET	 0.018651	 0.000000	 0.000000
					CHANNELS 3 Zrotation Xrotation Yrotation
					End Site
					{
						OFFSET	 0.018651	 0.000000	 0.000000
					}
				}
			}
		}
		JOINT L_middle_Proximal
		{
			OFFSET	 0.090632	-0.006115	-0.003750
			CHANNELS 3 Zrotation Xrotation Yrotation
			JOINT L_middle_b
			{
				OFFSET	 0.037195	 0.000000	 0.000000
				CHANNELS 3 Zrotation Xrotation Yrotation
				JOINT L_middle_c
				{
					OFFSET	 0.021943	 0.000000	 0.000000
					CHANNELS 3 Zrotation Xrotation Yrotation
					End Site
					{
						OFFSET	 0.021943	 0.000000	 0.000000
					}
				}
			}
		}
		JOINT L_pinky_Proximal
		{
			OFFSET	 0.074015	-0.035449	-0.000417
			CHANNELS 3 Zrotation Xrotation Yrotation
			JOINT L_pinky_b
			{
				OFFSET	 0.027285	 0.000000	 0.000000
				CHANNELS 3 Zrotation Xrotation Yrotation
				JOINT L_pinky_c
				{
					OFFSET	 0.015093	 0.000000	 0.000000
					CHANNELS 3 Zrotation Xrotation Yrotation
					End Site
					{
						OFFSET	 0.015093	 0.000000	 0.000000
					}
				}
			}
		}
		JOINT L_ring_Proximal
		{
			OFFSET	 0.082801	-0.021859	-0.003750
			CHANNELS 3 Zrotation Xrotation Yrotation
			JOINT L_ring_b
			{
				OFFSET	 0.034478	 0.000000	 0.000000
				CHANNELS 3 Zrotation Xrotation Yrotation
				JOINT L_ring_c
				{
					OFFSET	 0.021377	 0.000000	 0.000000
					CHANNELS 3 Zrotation Xrotation Yrotation
					End Site
					{
						OFFSET	 0.021377	 0.000000	 0.000000
					}
				}
			}
		}
		JOINT L_thumb_Proximal
		{
			OFFSET	 0.030306	 0.018528	 0.004584
			CHANNELS 3 Zrotation Xrotation Yrotation
			JOINT L_thumb_a
			{
				OFFSET	 0.038520	 0.000000	 0.000000
				CHANNELS 3 Zrotation Xrotation Yrotation
				JOINT L_thumb_b
				{
					OFFSET	 0.026310	 0.000000	 0.000000
					CHANNELS 3 Zrotation Xrotation Yrotation
					End Site
					{
						OFFSET	 0.026310	 0.000000	 0.000000
					}
				}
			}
		}
	}
}
MOTION
Frames:    17
Frame Time: 0.01666667
 0.488513	-0.172439	 0.692473	-69.904410	 55.969780	 157.553600	 8.553199	 5.492673	 33.048530	 7.645935	-4.683724	-52.235840	 3.101519	-0.848678	-30.600080	-2.018184	 0.294849	-16.621670	-9.958503	-8.344931	-47.150830	 0.318715	-0.178022	-58.367950	 2.938933	-1.178777	-43.703050	-30.259160	-18.071240	-54.163020	-0.704650	 0.437828	-63.709050	 3.725288	-2.238895	-62.000370	-20.257020	-10.404810	-62.674160	-0.498892	 0.358567	-71.410040	 4.715303	-2.305372	-52.089720	 67.065100	 44.537240	-60.467820	 2.441687	-0.198718	-9.303876	-0.212466	 0.032722	-17.502310
 0.488163	-0.172576	 0.692506	-69.975530	 55.874630	 157.589800	 8.548615	 5.489822	 33.029120	 7.600074	-4.654863	-52.215450	 3.105417	-0.850794	-30.636450	-1.981206	 0.289570	-16.629130	-10.114420	-8.259747	-47.747990	 0.104973	-0.059829	-59.352110	 3.074961	-1.255813	-44.422270	-30.305520	-18.044060	-54.203720	-0.773722	 0.482400	-63.885550	 3.677706	-2.214756	-62.102670	-20.256260	-10.404020	-62.743140	-0.622124	 0.447790	-71.490880	 4.677618	-2.287994	-52.110630	 67.083780	 44.562850	-60.395370	 2.446117	-0.198803	-9.291202	-0.156008	 0.024036	-17.509980
 0.487930	-0.172590	 0.692524	-70.067670	 55.762080	 157.646600	 8.548915	 5.492410	 33.046810	 7.628177	-4.668387	-52.183280	 3.118936	-0.854389	-30.632710	-1.973363	 0.288274	-16.620480	-10.230100	-8.194773	-48.247600	 0.020998	-0.012137	-60.082700	 3.154440	-1.306985	-45.003070	-30.339100	-18.024420	-54.232030	-0.785282	 0.490846	-64.013080	 3.618196	-2.181686	-62.167260	-20.248050	-10.408710	-62.801600	-0.702757	 0.505717	-71.479380	 4.619985	-2.264367	-52.202480	 67.120970	 44.594210	-60.290620	 2.455707	-0.199149	-9.271280	-0.107354	 0.016543	-17.522670
 0.487815	-0.172414	 0.692555	-70.113080	 55.711100	 157.665800	 8.527555	 5.494304	 33.059680	 7.637392	-4.674425	-52.190120	 3.113446	-0.851619	-30.589330	-1.977454	 0.288503	-16.600030	-10.376730	-8.112366	-48.671130	-0.067623	 0.039647	-60.776870	 3.222378	-1.351989	-45.513520	-30.350520	-18.015130	-54.317920	-0.834634	 0.522883	-64.131490	 3.538750	-2.139182	-62.295870	-20.217000	-10.430370	-62.818830	-0.737936	 0.531188	-71.495680	 4.615584	-2.269257	-52.343410	 67.123180	 44.605620	-60.265130	 2.476878	-0.200352	-9.247142	-0.047910	 0.007389	-17.505770
 0.487876	-0.172279	 0.692603	-70.144620	 55.669690	 157.687300	 8.519445	 5.494713	 33.062480	 7.650701	-4.680044	-52.166570	 3.117476	-0.852660	-30.586440	-1.972496	 0.287795	-16.600480	-10.420080	-8.087036	-48.873100	-0.075900	 0.044818	-61.122220	 3.293353	-1.391111	-45.789200	-30.348950	-18.014540	-54.361640	-0.851083	 0.533859	-64.196520	 3.511593	-2.124159	-62.329320	-20.201840	-10.440830	-62.835330	-0.751351	 0.541171	-71.526140	 4.607916	-2.268143	-52.396780	 67.119960	 44.616860	-60.245980	 2.492629	-0.201048	-9.221821	-0.010002	 0.001521	-17.478670
 0.487806	-0.172102	 0.692688	-70.188930	 55.623670	 157.710600	 8.498994	 5.497344	 33.080540	 7.660400	-4.680693	-52.112630	 3.097807	-0.848262	-30.621140	-1.939223	 0.283371	-16.625430	-10.486930	-8.046795	-49.256630	-0.129264	 0.077340	-61.780090	 3.382272	-1.443256	-46.207320	-30.352480	-18.010240	-54.429770	-0.852542	 0.535825	-64.296460	 3.533529	-2.137648	-62.334430	-20.176880	-10.457710	-62.879230	-0.775935	 0.559491	-71.587370	 4.620292	-2.275607	-52.424140	 67.121230	 44.628680	-60.220730	 2.519194	-0.202502	-9.189729	 0.041297	-0.006322	-17.417950
 0.487819	-0.171979	 0.692740	-70.215390	 55.597820	 157.721900	 8.495150	 5.496975	 33.077910	 7.660989	-4.678299	-52.083450	 3.077600	-0.842766	-30.622280	-1.919305	 0.280634	-16.636160	-10.515010	-8.029301	-49.458450	-0.210043	 0.126292	-62.032970	 3.393932	-1.455371	-46.410720	-30.355960	-18.007420	-54.455380	-0.846407	 0.532279	-64.327710	 3.552554	-2.149780	-62.349010	-20.162200	-10.467830	-62.896430	-0.790219	 0.570091	-71.614910	 4.628280	-2.280338	-52.440050	 67.112590	 44.639980	-60.207420	 2.518999	-0.202401	-9.186357	 0.045989	-0.007035	-17.410000
 0.487657	-0.171862	 0.692833	-70.273010	 55.558610	 157.719400	 8.501434	 5.491990	 33.044010	 7.671367	-4.676647	-52.000900	 3.027892	-0.829458	-30.633110	-1.901920	 0.278629	-16.667520	-10.562500	-7.998758	-49.855670	-0.292156	 0.177535	-62.572460	 3.499269	-1.515093	-46.812100	-30.350230	-18.010970	-54.445080	-0.838864	 0.528164	-64.388600	 3.581248	-2.167757	-62.363140	-20.143670	-10.480520	-62.921410	-0.840025	 0.606389	-71.648870	 4.631764	-2.284283	-52.484330	 67.149380	 44.629810	-60.187070	 2.531435	-0.202909	-9.164246	 0.057914	-0.008857	-17.395600
 0.487491	-0.171833	 0.692831	-70.306790	 55.553900	 157.709900	 8.511437	 5.488672	 33.021320	 7.691777	-4.688397	-51.998700	 3.027892	-0.829646	-30.639690	-1.884585	 0.276114	-16.669060	-10.596290	-7.977690	-50.058520	-0.341010	 0.208666	-62.922710	 3.580344	-1.556723	-46.987370	-30.355240	-18.007390	-54.467860	-0.847681	 0.534158	-64.431850	 3.593201	-2.175811	-62.382320	-20.140430	-10.482210	-62.956050	-0.862319	 0.622769	-71.673870	 4.658146	-2.297529	-52.488690	 67.192760	 44.609920	-60.179030	 2.530982	-0.202579	-9.150727	 0.066384	-0.010154	-17.409400
 0.487266	-0.171785	 0.692808	-70.330870	 55.549990	 157.692700	 8.518185	 5.482833	 32.981410	 7.681456	-4.680743	-51.981240	 3.044395	-0.834738	-30.660140	-1.854654	 0.271975	-16.684280	-10.660760	-7.936755	-50.467160	-0.459368	 0.284835	-63.605460	 3.641019	-1.596640	-47.345150	-30.362420	-18.002790	-54.485280	-0.847185	 0.534640	-64.509650	 3.644150	-2.206510	-62.378700	-20.125560	-10.492170	-62.989800	-0.901679	 0.651802	-71.724020	 4.702852	-2.320512	-52.506610	 67.208780	 44.614830	-60.151290	 2.543958	-0.202708	-9.110319	 0.098565	-0.015009	-17.307710
 0.487283	-0.171712	 0.692799	-70.348330	 55.522850	 157.690500	 8.510625	 5.482201	 32.977130	 7.678207	-4.675658	-51.947400	 3.009161	-0.825502	-30.674800	-1.849079	 0.271309	-16.692880	-10.685280	-7.920040	-50.701030	-0.547820	 0.342180	-63.978890	 3.667296	-1.615819	-47.545130	-30.361530	-18.002620	-54.504570	-0.855858	 0.540577	-64.553920	 3.648030	-2.209852	-62.401260	-20.110720	-10.502260	-63.016700	-0.922060	 0.667031	-71.764420	 4.722581	-2.330203	-52.505590	 67.227570	 44.613230	-60.133680	 2.551318	-0.202695	-9.082940	 0.108854	-0.016538	-17.291910
 0.487157	-0.171874	 0.692813	-70.314220	 55.520470	 157.656000	 8.510637	 5.482199	 32.977130	 7.678195	-4.675655	-51.947400	 3.009162	-0.825496	-30.674790	-1.849073	 0.271304	-16.692900	-10.685290	-7.920039	-50.701020	-0.547820	 0.342186	-63.978890	 3.667306	-1.615817	-47.545130	-30.361530	-18.002620	-54.504570	-0.855860	 0.540577	-64.553910	 3.648037	-2.209849	-62.401260	-20.110730	-10.502260	-63.016690	-0.922051	 0.667030	-71.764450	 4.722582	-2.330205	-52.505560	 67.227560	 44.613230	-60.133680	 2.551306	-0.202687	-9.082951	 0.108861	-0.016546	-17.291900
 0.487191	-0.171762	 0.692815	-70.354210	 55.475530	 157.666100	 8.495170	 5.481351	 32.971390	 7.691009	-4.678121	-51.894090	 2.981194	-0.817995	-30.681280	-1.839998	 0.270073	-16.699310	-10.743250	-7.882498	-51.062300	-0.617506	 0.389729	-64.511730	 3.685854	-1.634800	-47.826070	-30.367160	-17.997980	-54.547080	-0.900992	 0.570235	-64.658520	 3.622975	-2.197988	-62.478370	-20.095020	-10.512220	-63.085210	-1.004049	 0.728100	-71.895580	 4.745764	-2.343648	-52.544430	 67.267190	 44.607180	-60.101920	 2.557328	-0.202702	-9.062613	 0.100111	-0.015199	-17.274730
 0.487120	-0.171758	 0.692864	-70.450820	 55.358050	 157.733900	 8.471834	 5.483480	 32.985810	 7.672993	-4.656084	-51.770960	 2.891821	-0.793195	-30.671150	-1.826015	 0.267885	-16.690900	-10.862780	-7.807057	-51.569870	-0.847871	 0.542349	-65.211140	 3.605093	-1.614937	-48.249720	-30.379710	-17.989290	-54.595570	-0.947509	 0.601664	-64.829540	 3.569194	-2.170296	-62.593930	-20.082010	-10.520680	-63.133960	-1.057536	 0.768714	-72.025610	 4.739639	-2.345906	-52.647030	 67.262990	 44.640470	-60.039420	 2.567815	-0.202800	-9.029776	 0.110430	-0.016736	-17.232090
 0.487148	-0.171716	 0.692903	-70.458470	 55.348350	 157.741700	 8.459305	 5.483250	 32.984280	 7.647240	-4.639423	-51.753110	 2.894583	-0.794362	-30.686100	-1.807413	 0.265325	-16.701050	-10.894900	-7.787139	-51.666230	-0.860736	 0.552833	-65.422920	 3.599896	-1.618256	-48.399210	-30.387050	-17.985150	-54.596120	-0.955777	 0.607489	-64.879290	 3.572515	-2.173115	-62.612650	-20.078230	-10.523460	-63.128670	-1.072567	 0.780289	-72.070240	 4.730295	-2.343259	-52.685670	 67.253020	 44.649650	-60.031860	 2.574012	-0.203370	-9.033937	 0.106867	-0.016183	-17.222890
 0.487036	-0.171754	 0.692998	-70.442950	 55.351460	 157.730500	 8.449535	 5.482841	 32.981530	 7.608142	-4.617266	-51.759610	 2.896010	-0.796336	-30.744840	-1.803818	 0.265166	-16.724420	-10.922320	-7.768402	-51.857220	-0.816280	 0.527300	-65.722950	 3.622148	-1.633011	-48.524080	-30.401100	-17.977390	-54.592800	-0.954570	 0.607227	-64.922360	 3.587297	-2.181315	-62.594120	-20.071330	-10.528530	-63.119110	-1.087957	 0.791818	-72.094220	 4.739537	-2.347292	-52.674740	 67.249660	 44.644090	-60.046820	 2.574807	-0.203388	-9.031936	 0.100103	-0.015157	-17.203750
 0.486879	-0.171877	 0.693023	-70.423580	 55.345860	 157.716300	 8.460318	 5.481779	 32.974110	 7.597525	-4.609971	-51.747540	 2.888277	-0.794550	-30.756510	-1.803529	 0.265218	-16.729750	-10.930380	-7.763353	-51.883670	-0.786391	 0.508767	-65.803390	 3.587095	-1.617889	-48.542560	-30.403460	-17.976990	-54.565930	-0.954712	 0.607480	-64.936710	 3.595783	-2.186250	-62.589040	-20.067300	-10.532130	-63.077120	-1.108240	 0.806879	-72.113460	 4.724280	-2.339077	-52.662080	 67.243510	 44.653050	-60.035490	 2.581303	-0.203675	-9.021377	 0.096078	-0.014534	-17.195920
